<svg width="301" height="226" viewBox="0 0 301 226" fill="none" xmlns="http://www.w3.org/2000/svg">
<path d="M0 37.5C0 16.7893 16.7893 0 37.5 0V0C58.2107 0 75 16.7893 75 37.5V75H0V37.5Z" stroke="white" stroke-width="0.3"/>
<path d="M37.5 150C16.7893 150 0 133.211 0 112.5V112.5C0 91.7893 16.7893 75 37.5 75H75V150H37.5Z" stroke="white" stroke-width="0.3"/>
<path d="M150 112.5C150 133.211 133.211 150 112.5 150V150C91.7893 150 75 133.211 75 112.5L75 75L150 75V112.5Z" stroke="white" stroke-width="0.3"/>
<path d="M112.5 0C133.211 0 150 16.7893 150 37.5V37.5C150 58.2107 133.211 75 112.5 75L75 75L75 0L112.5 0Z" stroke="white" stroke-width="0.3"/>
<path d="M150 37.5C150 16.7893 166.789 0 187.5 0V0C208.211 0 225 16.7893 225 37.5V75H150V37.5Z" stroke="white" stroke-width="0.3"/>
<path d="M187.5 150C166.789 150 150 133.211 150 112.5V112.5C150 91.7893 166.789 75 187.5 75H225V150H187.5Z" stroke="white" stroke-width="0.3"/>
<path d="M300 112.5C300 133.211 283.211 150 262.5 150V150C241.789 150 225 133.211 225 112.5V75L300 75V112.5Z" stroke="white" stroke-width="0.3"/>
<path d="M262.5 0C283.211 0 300 16.7893 300 37.5V37.5C300 58.2107 283.211 75 262.5 75L225 75V0L262.5 0Z" stroke="white" stroke-width="0.3"/>
<path d="M75 112.5C75 91.7893 91.7893 75 112.5 75V75C133.211 75 150 91.7893 150 112.5V150H75V112.5Z" stroke="white" stroke-width="0.3"/>
<path d="M112.5 225C91.7893 225 75 208.211 75 187.5V187.5C75 166.789 91.7893 150 112.5 150H150V225H112.5Z" stroke="white" stroke-width="0.3"/>
<path d="M225 187.5C225 208.211 208.211 225 187.5 225V225C166.789 225 150 208.211 150 187.5V150H225V187.5Z" stroke="white" stroke-width="0.3"/>
<path d="M187.5 75C208.211 75 225 91.7893 225 112.5V112.5C225 133.211 208.211 150 187.5 150H150V75L187.5 75Z" stroke="white" stroke-width="0.3"/>
</svg>
