<svg width="546" height="275" viewBox="0 0 546 275" fill="none" xmlns="http://www.w3.org/2000/svg">
<path d="M548 273.499C497.863 273.23 457.27 232.637 457.001 182.5H548V273.499Z" stroke="#fff"/>
<path d="M457 91.5013C507.137 91.7696 547.73 132.363 547.999 182.5H457V91.5013Z" stroke="#fff"/>
<path d="M457 0.501337C507.137 0.769603 547.73 41.3626 547.999 91.5L457 91.5V0.501337Z" stroke="#fff"/>
<path d="M457 183C457 233.367 416.304 274.23 366 274.499L366 183C366 132.633 406.696 91.7705 457 91.5013L457 183Z" stroke="#fff"/>
<path d="M457 91.4987C406.863 91.2304 366.27 50.6374 366.001 0.5L457 0.5V91.4987Z" stroke="#fff"/>
<path d="M366 91.4987C315.863 91.2304 275.27 50.6374 275.001 0.5L366 0.5V91.4987Z" stroke="#fff"/>
<path d="M366 182.499C315.863 182.23 275.27 141.637 275.001 91.5L366 91.5V182.499Z" stroke="#fff"/>
<path d="M275 182.499C224.863 182.23 184.27 141.637 184.001 91.5L275 91.5V182.499Z" stroke="#fff"/>
<path d="M182.999 91.5C182.73 141.637 142.137 182.23 92 182.499L92 91.5L182.999 91.5Z" stroke="#fff"/>
<path d="M274.999 0.5C274.73 50.804 233.867 91.5 183.5 91.5C133.133 91.5 92.2705 50.804 92.0013 0.5L274.999 0.5Z" stroke="#fff"/>
<path d="M92 91.4987C41.8626 91.2304 1.2696 50.6374 1.00134 0.5L92 0.5L92 91.4987Z" stroke="#fff"/>
</svg>
