<svg width="601" height="601" viewBox="0 0 601 601" fill="none" xmlns="http://www.w3.org/2000/svg">
<path d="M0 100C0 44.7715 44.7715 0 100 0V0C155.228 0 200 44.7715 200 100V200H0V100Z" stroke="black" stroke-width="0.3"/>
<path d="M100 400C44.7715 400 0 355.228 0 300V300C0 244.772 44.7715 200 100 200H200V400L100 400Z" stroke="black" stroke-width="0.3"/>
<path d="M400 300C400 355.228 355.228 400 300 400V400C244.772 400 200 355.228 200 300L200 200L400 200V300Z" stroke="black" stroke-width="0.3"/>
<path d="M300 0C355.228 0 400 44.7715 400 100V100C400 155.228 355.228 200 300 200L200 200L200 0L300 0Z" stroke="black" stroke-width="0.3"/>
<path d="M300 600C244.772 600 200 555.228 200 500V500C200 444.772 244.772 400 300 400H400V600H300Z" stroke="black" stroke-width="0.3"/>
<path d="M500 200C555.228 200 600 244.772 600 300V300C600 355.228 555.228 400 500 400L400 400V200L500 200Z" stroke="black" stroke-width="0.3"/>
</svg>
