<svg xmlns="http://www.w3.org/2000/svg" fill="none" viewBox="0 0 352 352"><g filter="url(#a)" opacity=".4"><path fill="url(#b)" d="m214.782 109.013 56.41-28.206-28.205 56.411-105.769 105.769-56.41 28.205 28.205-56.41 105.769-105.769Z"/></g><g filter="url(#c)" opacity=".3"><path fill="url(#d)" d="M99.846 167.538 74.461 125.23l42.308 25.385 84.616 84.615 25.384 42.308-42.307-25.385-84.616-84.615Z"/></g><g filter="url(#e)" opacity=".3"><path fill="url(#f)" d="m252.154 184.461 25.384 42.308-42.307-25.385-84.616-84.615-25.384-42.308 42.307 25.385 84.616 84.615Z"/></g><defs><linearGradient id="b" x1="109.013" x2="232.729" y1="214.782" y2="123.339" gradientUnits="userSpaceOnUse"><stop stop-color="#6943FF"/><stop offset=".5" stop-color="#5FA8FF"/><stop offset="1" stop-color="#6FE5FF"/></linearGradient><linearGradient id="d" x1="184.462" x2="116.769" y1="252.154" y2="150.615" gradientUnits="userSpaceOnUse"><stop stop-color="#6943FF"/><stop offset=".5" stop-color="#5FA8FF"/><stop offset="1" stop-color="#6FE5FF"/></linearGradient><linearGradient id="f" x1="167.538" x2="235.231" y1="99.846" y2="201.384" gradientUnits="userSpaceOnUse"><stop stop-color="#6943FF"/><stop offset=".5" stop-color="#5FA8FF"/><stop offset="1" stop-color="#6FE5FF"/></linearGradient><filter id="a" width="350.385" height="350.385" x=".808" y=".807" color-interpolation-filters="sRGB" filterUnits="userSpaceOnUse"><feFlood flood-opacity="0" result="BackgroundImageFix"/><feBlend in="SourceGraphic" in2="BackgroundImageFix" result="shape"/><feGaussianBlur result="effect1_foregroundBlur_107_2778" stdDeviation="40"/></filter><filter id="c" width="264.308" height="264.308" x="18.462" y="69.231" color-interpolation-filters="sRGB" filterUnits="userSpaceOnUse"><feFlood flood-opacity="0" result="BackgroundImageFix"/><feBlend in="SourceGraphic" in2="BackgroundImageFix" result="shape"/><feGaussianBlur result="effect1_foregroundBlur_107_2778" stdDeviation="28"/></filter><filter id="e" width="264.308" height="264.308" x="69.231" y="18.461" color-interpolation-filters="sRGB" filterUnits="userSpaceOnUse"><feFlood flood-opacity="0" result="BackgroundImageFix"/><feBlend in="SourceGraphic" in2="BackgroundImageFix" result="shape"/><feGaussianBlur result="effect1_foregroundBlur_107_2778" stdDeviation="28"/></filter></defs></svg>
