<svg width="834" height="693" viewBox="0 0 834 693" fill="none" xmlns="http://www.w3.org/2000/svg">
<g opacity="0.5">
<path d="M910.794 128.79C812.588 232.608 706.51 344.747 529.154 433.373C352.634 521.582 158.81 531.102 9.14026 518.579C6.07483 518.323 3.0279 518.057 0 517.783V517.074C3.05447 517.351 6.12833 517.619 9.22105 517.878C158.795 530.392 352.422 520.87 528.735 432.765C705.954 344.207 811.941 232.167 910.151 128.346L910.153 128.344C921.045 116.831 931.84 105.419 942.626 94.1508C974.201 61.167 1005.7 29.4201 1039.29 0H1040.44C1006.67 29.5346 975.013 61.4342 943.267 94.5966C932.482 105.863 921.686 117.276 910.794 128.79Z" fill="url(#paint0_linear_10269_13473)"/>
<path d="M959.32 183.358C817.546 350.746 653.293 516.616 445.18 611.721C315.522 670.974 168.849 702.754 0 690.334V689.863C168.767 702.284 315.348 670.52 444.92 611.307C652.915 516.256 817.106 350.462 958.872 183.083C1003.79 130.045 1071.52 55.7146 1168.02 0H1169C1072.24 55.7049 1004.34 130.199 959.32 183.358Z" fill="url(#paint1_linear_10269_13473)"/>
<path d="M865.42 73.7414C768.232 178.315 649.672 280.216 530.176 334.074C335.698 421.728 131.041 408.703 0 381.619V380.652C130.853 407.736 335.364 420.815 529.661 333.243C648.954 279.476 767.4 177.697 864.556 73.1577C887.261 48.7268 908.801 24.1481 928.914 0H930.267C910.012 24.3372 888.307 49.1149 865.42 73.7414Z" fill="url(#paint2_linear_10269_13473)"/>
<path d="M796.528 40.4733C750.544 100.093 680.806 166.83 583.926 221.209C383.973 333.441 137.662 297.415 0 253.289V251.783C137.301 295.917 383.415 332.066 583.016 220.031C679.684 165.772 749.268 99.1807 795.145 39.6987C805.704 26.0089 815.005 12.697 823.092 0H824.974C816.765 12.9353 807.297 26.5097 796.528 40.4733Z" fill="url(#paint3_linear_10269_13473)"/>
<path d="M728.033 0C686.657 65.6632 607.779 127.406 491.241 166.69C367.384 208.441 179.757 207.467 0 133.562V131.737C179.602 205.801 367.04 206.789 490.532 165.16C606.312 126.132 684.596 64.9804 725.838 0H728.033Z" fill="url(#paint4_linear_10269_13473)"/>
</g>
<defs>
<linearGradient id="paint0_linear_10269_13473" x1="204.046" y1="146.183" x2="703.239" y2="721.725" gradientUnits="userSpaceOnUse">
<stop stop-color="#C0C4CB"/>
<stop offset="1" stop-color="#C0C4CB" stop-opacity="0"/>
</linearGradient>
<linearGradient id="paint1_linear_10269_13473" x1="204.046" y1="146.183" x2="703.239" y2="721.725" gradientUnits="userSpaceOnUse">
<stop stop-color="#C0C4CB"/>
<stop offset="1" stop-color="#C0C4CB" stop-opacity="0"/>
</linearGradient>
<linearGradient id="paint2_linear_10269_13473" x1="204.046" y1="146.183" x2="703.239" y2="721.725" gradientUnits="userSpaceOnUse">
<stop stop-color="#C0C4CB"/>
<stop offset="1" stop-color="#C0C4CB" stop-opacity="0"/>
</linearGradient>
<linearGradient id="paint3_linear_10269_13473" x1="204.046" y1="146.183" x2="703.239" y2="721.725" gradientUnits="userSpaceOnUse">
<stop stop-color="#C0C4CB"/>
<stop offset="1" stop-color="#C0C4CB" stop-opacity="0"/>
</linearGradient>
<linearGradient id="paint4_linear_10269_13473" x1="204.046" y1="146.183" x2="703.239" y2="721.725" gradientUnits="userSpaceOnUse">
<stop stop-color="#C0C4CB"/>
<stop offset="1" stop-color="#C0C4CB" stop-opacity="0"/>
</linearGradient>
</defs>
</svg>
