<svg width="822" height="758" viewBox="0 0 822 758" fill="none" xmlns="http://www.w3.org/2000/svg">
<path d="M279.309 533.1C199.368 508.113 113.687 536.917 80.8391 554.442C-96.1963 629.533 93.4763 287.414 331.227 138.395C568.978 -10.6248 614.792 247.873 702.169 477.673C789.545 707.474 379.235 564.334 279.309 533.1Z" fill="#DBEAFE"/>
<g filter="url(#filter0_b_6_522)">
<g filter="url(#filter1_b_6_522)">
<rect width="386" height="237" rx="15" transform="matrix(0.866025 -0.5 0.866025 0.5 39 497)" fill="url(#paint0_linear_6_522)" fill-opacity="0.8"/>
<rect x="0.433013" width="385.5" height="236.5" rx="14.75" transform="matrix(0.866025 -0.5 0.866025 0.5 39.058 497.217)" stroke="#D3D3D3" stroke-opacity="0.1" stroke-width="0.5"/>
</g>
</g>
<g filter="url(#filter2_b_6_522)">
<g filter="url(#filter3_b_6_522)">
<rect width="386" height="237" rx="15" transform="matrix(0.866025 -0.5 0.866025 0.5 39 459)" fill="url(#paint1_linear_6_522)" fill-opacity="0.8"/>
<rect x="0.433013" width="385.5" height="236.5" rx="14.75" transform="matrix(0.866025 -0.5 0.866025 0.5 39.058 459.217)" stroke="#D3D3D3" stroke-opacity="0.1" stroke-width="0.5"/>
</g>
</g>
<g filter="url(#filter4_b_6_522)">
<g filter="url(#filter5_b_6_522)">
<rect width="386" height="237" rx="15" transform="matrix(0.866025 -0.5 0.866025 0.5 39 421)" fill="url(#paint2_linear_6_522)" fill-opacity="0.8"/>
<rect x="0.433013" width="385.5" height="236.5" rx="14.75" transform="matrix(0.866025 -0.5 0.866025 0.5 39.058 421.217)" stroke="#D3D3D3" stroke-opacity="0.1" stroke-width="0.5"/>
</g>
</g>
<g filter="url(#filter6_b_6_522)">
<rect width="386" height="237" rx="12" transform="matrix(0.866025 -0.5 0.866025 0.5 39 385)" fill="#2563EB"/>
</g>
<g clip-path="url(#clip0_6_522)">
<g clip-path="url(#clip1_6_522)">
<circle opacity="0.5" cx="12" cy="12" r="12" transform="matrix(0.866025 -0.5 0.866025 0.5 431.31 273.5)" fill="white"/>
<circle opacity="0.75" cx="12" cy="12" r="12" transform="matrix(0.866025 -0.5 0.866025 0.5 417.453 281.5)" fill="white"/>
</g>
</g>
<g clip-path="url(#clip2_6_522)">
<path d="M119.973 400.75C113.277 396.884 113.277 390.616 119.973 386.75C126.67 382.884 137.526 382.884 144.222 386.75L141.191 388.5C136.169 385.601 128.027 385.601 123.004 388.5C117.982 391.399 117.982 396.101 123.004 399L119.973 400.75ZM118.458 385.875C113.434 388.776 105.295 388.776 100.271 385.875C95.2473 382.974 95.2473 378.276 100.271 375.375C105.295 372.474 113.434 372.474 118.458 375.375C123.482 378.276 123.482 382.974 118.458 385.875ZM115.427 384.125C118.776 382.191 118.776 379.059 115.427 377.125C112.077 375.191 106.652 375.191 103.302 377.125C99.9531 379.059 99.9531 382.191 103.302 384.125C106.652 386.059 112.077 386.059 115.427 384.125Z" fill="white"/>
</g>
<rect width="82" height="15" rx="5" transform="matrix(0.866025 -0.5 0.866025 0.5 173.234 438.5)" fill="white"/>
<rect width="82" height="15" rx="5" transform="matrix(0.866025 -0.5 0.866025 0.5 223.463 409.5)" fill="url(#paint3_linear_6_522)"/>
<rect width="40" height="15" rx="5" transform="matrix(0.866025 -0.5 0.866025 0.5 466.817 336)" fill="white"/>
<rect width="16" height="15" rx="5" transform="matrix(0.866025 -0.5 0.866025 0.5 510.118 311)" fill="url(#paint4_linear_6_522)"/>
<circle cx="5" cy="5" r="5" transform="matrix(0.866025 -0.5 0.866025 0.5 233.856 473.5)" fill="white"/>
<circle cx="5" cy="5" r="5" transform="matrix(0.866025 -0.5 0.866025 0.5 233.856 473.5)" fill="white"/>
<circle cx="5" cy="5" r="5" transform="matrix(0.866025 -0.5 0.866025 0.5 243.382 468)" fill="url(#paint5_linear_6_522)"/>
<circle cx="5" cy="5" r="5" transform="matrix(0.866025 -0.5 0.866025 0.5 256.372 460.5)" fill="white"/>
<circle cx="5" cy="5" r="5" transform="matrix(0.866025 -0.5 0.866025 0.5 256.372 460.5)" fill="white"/>
<circle cx="5" cy="5" r="5" transform="matrix(0.866025 -0.5 0.866025 0.5 265.899 455)" fill="url(#paint6_linear_6_522)"/>
<path d="M149.851 423L170.282 423.204M159.89 417.204L160.244 429" stroke="white" stroke-width="2" stroke-linecap="round" stroke-linejoin="round"/>
<path d="M192.516 398.367L212.947 398.571M202.555 392.571L202.909 404.367" stroke="white" stroke-width="2" stroke-linecap="round" stroke-linejoin="round"/>
<path d="M178.295 406.578L198.726 406.782M188.333 400.782L188.687 412.578" stroke="white" stroke-width="2" stroke-linecap="round" stroke-linejoin="round"/>
<path d="M164.073 414.789L184.504 414.993M174.112 408.993L174.465 420.789" stroke="white" stroke-width="2" stroke-linecap="round" stroke-linejoin="round"/>
<path d="M213.937 386L234.368 386.204M223.976 380.204L224.329 392" stroke="white" stroke-width="2" stroke-linecap="round" stroke-linejoin="round"/>
<path d="M256.602 361.367L277.033 361.571M266.641 355.571L266.994 367.367" stroke="white" stroke-width="2" stroke-linecap="round" stroke-linejoin="round"/>
<path d="M242.38 369.578L262.812 369.782M252.419 363.782L252.773 375.578" stroke="white" stroke-width="2" stroke-linecap="round" stroke-linejoin="round"/>
<path d="M228.159 377.789L248.59 377.993M238.198 371.993L238.551 383.789" stroke="white" stroke-width="2" stroke-linecap="round" stroke-linejoin="round"/>
<path d="M278.023 349L298.454 349.204M288.062 343.204L288.415 355" stroke="white" stroke-width="2" stroke-linecap="round" stroke-linejoin="round"/>
<path d="M320.688 324.367L341.119 324.571M330.727 318.571L331.08 330.367" stroke="white" stroke-width="2" stroke-linecap="round" stroke-linejoin="round"/>
<path d="M306.466 332.578L326.897 332.782M316.505 326.782L316.859 338.578" stroke="white" stroke-width="2" stroke-linecap="round" stroke-linejoin="round"/>
<path d="M292.245 340.789L312.676 340.993M302.284 334.993L302.637 346.789" stroke="white" stroke-width="2" stroke-linecap="round" stroke-linejoin="round"/>
<path d="M342.109 312L362.54 312.204M352.148 306.204L352.501 318" stroke="white" stroke-width="2" stroke-linecap="round" stroke-linejoin="round"/>
<path d="M384.774 287.367L405.205 287.571M394.813 281.571L395.166 293.367" stroke="white" stroke-width="2" stroke-linecap="round" stroke-linejoin="round"/>
<path d="M370.552 295.578L390.983 295.782M380.591 289.782L380.945 301.578" stroke="white" stroke-width="2" stroke-linecap="round" stroke-linejoin="round"/>
<path d="M356.331 303.789L376.762 303.993M366.369 297.993L366.723 309.789" stroke="white" stroke-width="2" stroke-linecap="round" stroke-linejoin="round"/>
<path d="M254.64 458.5L262.435 470" stroke="white" stroke-width="1.5" stroke-linecap="round" stroke-linejoin="round"/>
<defs>
<filter id="filter0_b_6_522" x="35" y="300" width="547.534" height="319.5" filterUnits="userSpaceOnUse" color-interpolation-filters="sRGB">
<feFlood flood-opacity="0" result="BackgroundImageFix"/>
<feGaussianBlur in="BackgroundImageFix" stdDeviation="2"/>
<feComposite in2="SourceAlpha" operator="in" result="effect1_backgroundBlur_6_522"/>
<feBlend mode="normal" in="SourceGraphic" in2="effect1_backgroundBlur_6_522" result="shape"/>
</filter>
<filter id="filter1_b_6_522" x="42.6096" y="304.393" width="532.315" height="310.713" filterUnits="userSpaceOnUse" color-interpolation-filters="sRGB">
<feFlood flood-opacity="0" result="BackgroundImageFix"/>
<feGaussianBlur in="BackgroundImageFix" stdDeviation="2"/>
<feComposite in2="SourceAlpha" operator="in" result="effect1_backgroundBlur_6_522"/>
<feBlend mode="normal" in="SourceGraphic" in2="effect1_backgroundBlur_6_522" result="shape"/>
</filter>
<filter id="filter2_b_6_522" x="35" y="262" width="547.534" height="319.5" filterUnits="userSpaceOnUse" color-interpolation-filters="sRGB">
<feFlood flood-opacity="0" result="BackgroundImageFix"/>
<feGaussianBlur in="BackgroundImageFix" stdDeviation="2"/>
<feComposite in2="SourceAlpha" operator="in" result="effect1_backgroundBlur_6_522"/>
<feBlend mode="normal" in="SourceGraphic" in2="effect1_backgroundBlur_6_522" result="shape"/>
</filter>
<filter id="filter3_b_6_522" x="42.6096" y="266.393" width="532.315" height="310.713" filterUnits="userSpaceOnUse" color-interpolation-filters="sRGB">
<feFlood flood-opacity="0" result="BackgroundImageFix"/>
<feGaussianBlur in="BackgroundImageFix" stdDeviation="2"/>
<feComposite in2="SourceAlpha" operator="in" result="effect1_backgroundBlur_6_522"/>
<feBlend mode="normal" in="SourceGraphic" in2="effect1_backgroundBlur_6_522" result="shape"/>
</filter>
<filter id="filter4_b_6_522" x="35" y="224" width="547.534" height="319.5" filterUnits="userSpaceOnUse" color-interpolation-filters="sRGB">
<feFlood flood-opacity="0" result="BackgroundImageFix"/>
<feGaussianBlur in="BackgroundImageFix" stdDeviation="2"/>
<feComposite in2="SourceAlpha" operator="in" result="effect1_backgroundBlur_6_522"/>
<feBlend mode="normal" in="SourceGraphic" in2="effect1_backgroundBlur_6_522" result="shape"/>
</filter>
<filter id="filter5_b_6_522" x="42.6096" y="228.393" width="532.315" height="310.713" filterUnits="userSpaceOnUse" color-interpolation-filters="sRGB">
<feFlood flood-opacity="0" result="BackgroundImageFix"/>
<feGaussianBlur in="BackgroundImageFix" stdDeviation="2"/>
<feComposite in2="SourceAlpha" operator="in" result="effect1_backgroundBlur_6_522"/>
<feBlend mode="normal" in="SourceGraphic" in2="effect1_backgroundBlur_6_522" result="shape"/>
</filter>
<filter id="filter6_b_6_522" x="-4.91229" y="145.515" width="627.358" height="404.471" filterUnits="userSpaceOnUse" color-interpolation-filters="sRGB">
<feFlood flood-opacity="0" result="BackgroundImageFix"/>
<feGaussianBlur in="BackgroundImageFix" stdDeviation="25"/>
<feComposite in2="SourceAlpha" operator="in" result="effect1_backgroundBlur_6_522"/>
<feBlend mode="normal" in="SourceGraphic" in2="effect1_backgroundBlur_6_522" result="shape"/>
</filter>
<linearGradient id="paint0_linear_6_522" x1="193" y1="0" x2="193" y2="237" gradientUnits="userSpaceOnUse">
<stop stop-color="#2563EB"/>
<stop offset="1" stop-color="#2563EB" stop-opacity="0.2"/>
</linearGradient>
<linearGradient id="paint1_linear_6_522" x1="193" y1="0" x2="193" y2="237" gradientUnits="userSpaceOnUse">
<stop stop-color="#2563EB"/>
<stop offset="1" stop-color="#2563EB" stop-opacity="0.2"/>
</linearGradient>
<linearGradient id="paint2_linear_6_522" x1="193" y1="0" x2="193" y2="237" gradientUnits="userSpaceOnUse">
<stop stop-color="#2563EB"/>
<stop offset="1" stop-color="#2563EB" stop-opacity="0.2"/>
</linearGradient>
<linearGradient id="paint3_linear_6_522" x1="0" y1="7.5" x2="82" y2="7.5" gradientUnits="userSpaceOnUse">
<stop stop-color="white" stop-opacity="0"/>
<stop offset="1" stop-color="white"/>
</linearGradient>
<linearGradient id="paint4_linear_6_522" x1="0" y1="7.5" x2="16" y2="7.5" gradientUnits="userSpaceOnUse">
<stop stop-color="white" stop-opacity="0"/>
<stop offset="1" stop-color="white"/>
</linearGradient>
<linearGradient id="paint5_linear_6_522" x1="0" y1="5" x2="10.5" y2="5" gradientUnits="userSpaceOnUse">
<stop stop-color="white" stop-opacity="0"/>
<stop offset="1" stop-color="white"/>
</linearGradient>
<linearGradient id="paint6_linear_6_522" x1="0" y1="5" x2="10.5" y2="5" gradientUnits="userSpaceOnUse">
<stop stop-color="white" stop-opacity="0"/>
<stop offset="1" stop-color="white"/>
</linearGradient>
<clipPath id="clip0_6_522">
<rect width="386" height="105" fill="white" transform="matrix(0.866025 -0.5 0.866025 0.5 103.086 422)"/>
</clipPath>
<clipPath id="clip1_6_522">
<rect width="40" height="32" fill="white" transform="matrix(0.866025 -0.5 0.866025 0.5 413.989 279.5)"/>
</clipPath>
<clipPath id="clip2_6_522">
<rect width="42" height="42" fill="white" transform="matrix(0.866025 -0.5 0.866025 0.5 80.5692 385)"/>
</clipPath>
</defs>
</svg>
