<?xml version="1.0" encoding="UTF-8"?>
<!DOCTYPE svg PUBLIC "-//W3C//DTD SVG 1.1//EN" "http://www.w3.org/Graphics/SVG/1.1/DTD/svg11.dtd">
<svg xmlns="http://www.w3.org/2000/svg" version="1.1" width="640px" height="866px" style="shape-rendering:geometricPrecision; text-rendering:geometricPrecision; image-rendering:optimizeQuality; fill-rule:evenodd; clip-rule:evenodd" xmlns:xlink="http://www.w3.org/1999/xlink">
<g><path style="opacity:0.993" fill="#0b0b0b" d="M 504.5,418.5 C 500.5,418.5 496.5,418.5 492.5,418.5C 491.504,354.905 491.171,291.238 491.5,227.5C 470.831,227.667 450.164,227.5 429.5,227C 423.708,224.91 422.208,221.076 425,215.5C 426.491,213.996 428.324,213.163 430.5,213C 450.831,212.5 471.164,212.333 491.5,212.5C 491.667,190.497 491.5,168.497 491,146.5C 487.357,129.846 477.523,118.346 461.5,112C 455.167,111.833 448.833,111.667 442.5,111.5C 435.092,111.387 427.759,111.887 420.5,113C 418.291,114.873 416.458,117.04 415,119.5C 413.836,126.458 412.836,133.458 412,140.5C 409.753,145.712 405.92,149.212 400.5,151C 345.833,151.667 291.167,151.667 236.5,151C 226.834,144.028 223,134.528 225,122.5C 223.71,118.76 221.543,115.593 218.5,113C 204.928,111.37 191.261,111.037 177.5,112C 162.818,118.014 152.985,128.514 148,143.5C 147.5,166.498 147.333,189.498 147.5,212.5C 168.836,212.333 190.169,212.5 211.5,213C 216.313,217.041 216.646,221.375 212.5,226C 190.857,227.333 169.19,227.833 147.5,227.5C 147.832,291.002 147.499,354.336 146.5,417.5C 142.833,417.5 139.167,417.5 135.5,417.5C 135.831,386.329 135.498,355.329 134.5,324.5C 134.833,292.16 134.5,259.826 133.5,227.5C 126.528,228.403 121.028,231.736 117,237.5C 116,266.492 115.333,295.492 115,324.5C 107.922,330.564 102.589,329.231 99,320.5C 98.3333,294.5 98.3333,268.5 99,242.5C 103.145,223.689 114.812,213.355 134,211.5C 134.333,189.5 134.667,167.5 135,145.5C 139.407,121.092 153.574,105.592 177.5,99C 268.47,97.3484 359.47,97.0151 450.5,98C 480.682,100.514 498.515,116.681 504,146.5C 504.333,168.167 504.667,189.833 505,211.5C 524.578,213.408 536.245,224.075 540,243.5C 540.667,268.833 540.667,294.167 540,319.5C 536.993,329.014 531.659,330.681 524,324.5C 523.649,295.492 522.982,266.492 522,237.5C 517.702,231.436 511.869,228.102 504.5,227.5C 504.5,291.167 504.5,354.833 504.5,418.5 Z"/></g>
<g><path style="opacity:1" fill="#fdfdfd" d="M 492.5,418.5 C 482.833,418.5 473.167,418.5 463.5,418.5C 463.5,415.833 463.5,413.167 463.5,410.5C 457.167,410.5 450.833,410.5 444.5,410.5C 442.393,409.532 440.059,409.198 437.5,409.5C 437.813,405.958 437.479,402.625 436.5,399.5C 434.777,398.2 432.61,397.533 430,397.5C 427.833,397.667 425.667,397.833 423.5,398C 422.536,402.066 422.203,406.233 422.5,410.5C 418.154,410.334 413.821,410.501 409.5,411C 408.565,413.381 408.232,415.881 408.5,418.5C 404.167,418.5 399.833,418.5 395.5,418.5C 395.768,415.881 395.435,413.381 394.5,411C 390.179,410.501 385.846,410.334 381.5,410.5C 381.666,406.486 381.499,402.486 381,398.5C 380.5,398 380,397.5 379.5,397C 366.833,396.333 354.167,396.333 341.5,397C 341,397.5 340.5,398 340,398.5C 339.501,402.486 339.334,406.486 339.5,410.5C 335.167,410.5 330.833,410.5 326.5,410.5C 326.5,397.167 326.5,383.833 326.5,370.5C 330.833,370.5 335.167,370.5 339.5,370.5C 339.5,374.833 339.5,379.167 339.5,383.5C 344.167,383.5 348.833,383.5 353.5,383.5C 353.5,378.833 353.5,374.167 353.5,369.5C 349.167,369.5 344.833,369.5 340.5,369.5C 340.5,365.167 340.5,360.833 340.5,356.5C 345.167,356.5 349.833,356.5 354.5,356.5C 354.818,347.249 354.485,338.083 353.5,329C 349.167,328.333 344.833,328.333 340.5,329C 339.533,333.401 339.2,337.901 339.5,342.5C 335.154,342.334 330.821,342.501 326.5,343C 325.536,347.066 325.203,351.233 325.5,355.5C 321.5,355.5 317.5,355.5 313.5,355.5C 313.817,351.298 313.483,347.298 312.5,343.5C 308.03,342.514 303.363,342.181 298.5,342.5C 298.5,351.5 298.5,360.5 298.5,369.5C 293.901,369.2 289.401,369.533 285,370.5C 284.5,379.16 284.334,387.827 284.5,396.5C 266.132,396.206 247.799,396.539 229.5,397.5C 229.5,401.833 229.5,406.167 229.5,410.5C 225.167,410.5 220.833,410.5 216.5,410.5C 216.797,406.233 216.464,402.066 215.5,398C 202.57,396.391 189.57,396.058 176.5,397C 176,397.5 175.5,398 175,398.5C 174.208,405.247 174.374,411.914 175.5,418.5C 165.833,418.5 156.167,418.5 146.5,418.5C 146.5,418.167 146.5,417.833 146.5,417.5C 147.499,354.336 147.832,291.002 147.5,227.5C 169.19,227.833 190.857,227.333 212.5,226C 216.646,221.375 216.313,217.041 211.5,213C 190.169,212.5 168.836,212.333 147.5,212.5C 147.333,189.498 147.5,166.498 148,143.5C 152.985,128.514 162.818,118.014 177.5,112C 191.261,111.037 204.928,111.37 218.5,113C 221.543,115.593 223.71,118.76 225,122.5C 223,134.528 226.834,144.028 236.5,151C 291.167,151.667 345.833,151.667 400.5,151C 405.92,149.212 409.753,145.712 412,140.5C 412.836,133.458 413.836,126.458 415,119.5C 416.458,117.04 418.291,114.873 420.5,113C 427.759,111.887 435.092,111.387 442.5,111.5C 448.833,111.667 455.167,111.833 461.5,112C 477.523,118.346 487.357,129.846 491,146.5C 491.5,168.497 491.667,190.497 491.5,212.5C 471.164,212.333 450.831,212.5 430.5,213C 428.324,213.163 426.491,213.996 425,215.5C 422.208,221.076 423.708,224.91 429.5,227C 450.164,227.5 470.831,227.667 491.5,227.5C 491.171,291.238 491.504,354.905 492.5,418.5 Z"/></g>
<g><path style="opacity:1" fill="#0a0a0a" d="M 174.5,287.5 C 206.502,287.333 238.502,287.5 270.5,288C 271.496,319.76 271.829,351.593 271.5,383.5C 239.167,383.5 206.833,383.5 174.5,383.5C 174.5,351.5 174.5,319.5 174.5,287.5 Z"/></g>
<g><path style="opacity:1" fill="#060606" d="M 312.5,287.5 C 317.167,287.5 321.833,287.5 326.5,287.5C 326.5,292.167 326.5,296.833 326.5,301.5C 321.833,301.5 317.167,301.5 312.5,301.5C 312.5,296.833 312.5,292.167 312.5,287.5 Z"/></g>
<g><path style="opacity:1" fill="#101010" d="M 340.5,287.5 C 345.167,287.5 349.833,287.5 354.5,287.5C 354.5,296.5 354.5,305.5 354.5,314.5C 349.5,314.5 344.5,314.5 339.5,314.5C 339.196,305.416 339.529,296.416 340.5,287.5 Z"/></g>
<g><path style="opacity:1" fill="#0c0c0c" d="M 367.5,287.5 C 399.833,287.5 432.167,287.5 464.5,287.5C 464.5,319.5 464.5,351.5 464.5,383.5C 432.167,383.5 399.833,383.5 367.5,383.5C 367.5,351.5 367.5,319.5 367.5,287.5 Z"/></g>
<g><path style="opacity:1" fill="#fbfbfb" d="M 187.5,299.5 C 211.167,299.5 234.833,299.5 258.5,299.5C 258.833,323.176 258.5,346.843 257.5,370.5C 234.212,371.49 210.879,371.823 187.5,371.5C 187.5,347.5 187.5,323.5 187.5,299.5 Z"/></g>
<g><path style="opacity:1" fill="#fefefe" d="M 380.5,299.5 C 404.167,299.5 427.833,299.5 451.5,299.5C 451.5,323.5 451.5,347.5 451.5,371.5C 427.833,371.5 404.167,371.5 380.5,371.5C 380.5,347.5 380.5,323.5 380.5,299.5 Z"/></g>
<g><path style="opacity:1" fill="#090909" d="M 201.5,314.5 C 215.833,314.5 230.167,314.5 244.5,314.5C 244.5,328.5 244.5,342.5 244.5,356.5C 230.167,356.5 215.833,356.5 201.5,356.5C 201.5,342.5 201.5,328.5 201.5,314.5 Z"/></g>
<g><path style="opacity:1" fill="#0f0f0f" d="M 312.5,314.5 C 317.167,314.5 321.833,314.5 326.5,314.5C 326.5,319.167 326.5,323.833 326.5,328.5C 321.833,328.5 317.167,328.5 312.5,328.5C 312.5,323.833 312.5,319.167 312.5,314.5 Z"/></g>
<g><path style="opacity:1" fill="#090909" d="M 394.5,314.5 C 408.833,314.5 423.167,314.5 437.5,314.5C 437.667,328.504 437.5,342.504 437,356.5C 422.912,357.49 408.745,357.824 394.5,357.5C 394.5,343.167 394.5,328.833 394.5,314.5 Z"/></g>
<g><path style="opacity:1" fill="#111111" d="M 285.5,314.5 C 289.833,314.5 294.167,314.5 298.5,314.5C 298.5,319.167 298.5,323.833 298.5,328.5C 293.833,328.5 289.167,328.5 284.5,328.5C 284.226,323.737 284.559,319.07 285.5,314.5 Z"/></g>
<g><path style="opacity:1" fill="#0b0b0b" d="M 395.5,418.5 C 390.833,418.5 386.167,418.5 381.5,418.5C 380.631,416.283 380.298,413.95 380.5,411.5C 376.4,411.237 372.4,411.57 368.5,412.5C 367.549,413.919 367.216,415.585 367.5,417.5C 363.167,417.5 358.833,417.5 354.5,417.5C 353.539,415.735 353.205,413.735 353.5,411.5C 349.167,411.5 344.833,411.5 340.5,411.5C 340.5,413.833 340.5,416.167 340.5,418.5C 336.167,418.5 331.833,418.5 327.5,418.5C 325.832,416.521 325.166,414.188 325.5,411.5C 321.167,411.5 316.833,411.5 312.5,411.5C 312.5,397.833 312.5,384.167 312.5,370.5C 308.167,370.5 303.833,370.5 299.5,370.5C 299.83,386.342 299.496,402.009 298.5,417.5C 293.833,417.5 289.167,417.5 284.5,417.5C 284.5,415.5 284.5,413.5 284.5,411.5C 275.833,411.5 267.167,411.5 258.5,411.5C 258.702,413.95 258.369,416.283 257.5,418.5C 252.833,418.5 248.167,418.5 243.5,418.5C 243.5,416.167 243.5,413.833 243.5,411.5C 239.167,411.5 234.833,411.5 230.5,411.5C 230.5,413.833 230.5,416.167 230.5,418.5C 212.167,418.5 193.833,418.5 175.5,418.5C 174.374,411.914 174.208,405.247 175,398.5C 175.5,398 176,397.5 176.5,397C 189.57,396.058 202.57,396.391 215.5,398C 216.464,402.066 216.797,406.233 216.5,410.5C 220.833,410.5 225.167,410.5 229.5,410.5C 229.5,406.167 229.5,401.833 229.5,397.5C 247.799,396.539 266.132,396.206 284.5,396.5C 284.334,387.827 284.5,379.16 285,370.5C 289.401,369.533 293.901,369.2 298.5,369.5C 298.5,360.5 298.5,351.5 298.5,342.5C 303.363,342.181 308.03,342.514 312.5,343.5C 312.5,347.833 312.5,352.167 312.5,356.5C 317.032,356.818 321.366,356.485 325.5,355.5C 325.203,351.233 325.536,347.066 326.5,343C 330.821,342.501 335.154,342.334 339.5,342.5C 339.2,337.901 339.533,333.401 340.5,329C 344.833,328.333 349.167,328.333 353.5,329C 354.485,338.083 354.818,347.249 354.5,356.5C 349.833,356.5 345.167,356.5 340.5,356.5C 340.5,360.833 340.5,365.167 340.5,369.5C 344.833,369.5 349.167,369.5 353.5,369.5C 353.5,374.167 353.5,378.833 353.5,383.5C 348.833,383.5 344.167,383.5 339.5,383.5C 339.5,379.167 339.5,374.833 339.5,370.5C 335.167,370.5 330.833,370.5 326.5,370.5C 326.5,383.833 326.5,397.167 326.5,410.5C 330.833,410.5 335.167,410.5 339.5,410.5C 339.334,406.486 339.501,402.486 340,398.5C 340.5,398 341,397.5 341.5,397C 354.167,396.333 366.833,396.333 379.5,397C 380,397.5 380.5,398 381,398.5C 381.499,402.486 381.666,406.486 381.5,410.5C 385.846,410.334 390.179,410.501 394.5,411C 395.435,413.381 395.768,415.881 395.5,418.5 Z"/></g>
<g><path style="opacity:1" fill="#757575" d="M 312.5,343.5 C 313.483,347.298 313.817,351.298 313.5,355.5C 317.5,355.5 321.5,355.5 325.5,355.5C 321.366,356.485 317.032,356.818 312.5,356.5C 312.5,352.167 312.5,347.833 312.5,343.5 Z"/></g>
<g><path style="opacity:1" fill="#fefefe" d="M 327.5,418.5 C 317.833,418.5 308.167,418.5 298.5,418.5C 298.5,418.167 298.5,417.833 298.5,417.5C 299.496,402.009 299.83,386.342 299.5,370.5C 303.833,370.5 308.167,370.5 312.5,370.5C 312.5,384.167 312.5,397.833 312.5,411.5C 316.833,411.5 321.167,411.5 325.5,411.5C 325.166,414.188 325.832,416.521 327.5,418.5 Z"/></g>
<g><path style="opacity:0.177" fill="#696969" d="M 134.5,324.5 C 135.498,355.329 135.831,386.329 135.5,417.5C 139.167,417.5 142.833,417.5 146.5,417.5C 146.5,417.833 146.5,418.167 146.5,418.5C 142.5,418.5 138.5,418.5 134.5,418.5C 134.5,387.167 134.5,355.833 134.5,324.5 Z"/></g>
<g><path style="opacity:1" fill="#121010" d="M 436.5,399.5 C 436.5,403.167 436.5,406.833 436.5,410.5C 439.167,410.5 441.833,410.5 444.5,410.5C 450.833,410.5 457.167,410.5 463.5,410.5C 463.5,413.167 463.5,415.833 463.5,418.5C 454.416,418.804 445.416,418.471 436.5,417.5C 436.822,415.278 436.155,413.444 434.5,412C 430.848,411.501 427.182,411.335 423.5,411.5C 423.5,413.5 423.5,415.5 423.5,417.5C 418.595,418.445 413.595,418.779 408.5,418.5C 408.232,415.881 408.565,413.381 409.5,411C 413.821,410.501 418.154,410.334 422.5,410.5C 422.203,406.233 422.536,402.066 423.5,398C 425.667,397.833 427.833,397.667 430,397.5C 432.61,397.533 434.777,398.2 436.5,399.5 Z"/></g>
<g><path style="opacity:1" fill="#a9a9a9" d="M 436.5,399.5 C 437.479,402.625 437.813,405.958 437.5,409.5C 440.059,409.198 442.393,409.532 444.5,410.5C 441.833,410.5 439.167,410.5 436.5,410.5C 436.5,406.833 436.5,403.167 436.5,399.5 Z"/></g>
<g><path style="opacity:1" fill="#fefffe" d="M 243.5,418.5 C 239.167,418.5 234.833,418.5 230.5,418.5C 230.5,416.167 230.5,413.833 230.5,411.5C 234.833,411.5 239.167,411.5 243.5,411.5C 243.5,413.833 243.5,416.167 243.5,418.5 Z"/></g>
<g><path style="opacity:1" fill="#f5f5f5" d="M 298.5,417.5 C 298.5,417.833 298.5,418.167 298.5,418.5C 284.833,418.5 271.167,418.5 257.5,418.5C 258.369,416.283 258.702,413.95 258.5,411.5C 267.167,411.5 275.833,411.5 284.5,411.5C 284.5,413.5 284.5,415.5 284.5,417.5C 289.167,417.5 293.833,417.5 298.5,417.5 Z"/></g>
<g><path style="opacity:1" fill="#fefefe" d="M 354.5,417.5 C 354.5,417.833 354.5,418.167 354.5,418.5C 349.833,418.5 345.167,418.5 340.5,418.5C 340.5,416.167 340.5,413.833 340.5,411.5C 344.833,411.5 349.167,411.5 353.5,411.5C 353.205,413.735 353.539,415.735 354.5,417.5 Z"/></g>
<g><path style="opacity:1" fill="#f8f6f6" d="M 436.5,417.5 C 432.378,417.34 428.044,417.34 423.5,417.5C 423.5,415.5 423.5,413.5 423.5,411.5C 427.182,411.335 430.848,411.501 434.5,412C 436.155,413.444 436.822,415.278 436.5,417.5 Z"/></g>
<g><path style="opacity:1" fill="#f8f2f2" d="M 381.5,418.5 C 377.167,418.5 372.833,418.5 368.5,418.5C 368.5,416.5 368.5,414.5 368.5,412.5C 372.4,411.57 376.4,411.237 380.5,411.5C 380.298,413.95 380.631,416.283 381.5,418.5 Z"/></g>
<g><path style="opacity:1" fill="#817a7b" d="M 368.5,412.5 C 368.5,414.5 368.5,416.5 368.5,418.5C 363.833,418.5 359.167,418.5 354.5,418.5C 354.5,418.167 354.5,417.833 354.5,417.5C 358.833,417.5 363.167,417.5 367.5,417.5C 367.216,415.585 367.549,413.919 368.5,412.5 Z"/></g>
<g><path style="opacity:0.994" fill="#e64750" d="M 436.5,417.5 C 445.416,418.471 454.416,418.804 463.5,418.5C 473.167,418.5 482.833,418.5 492.5,418.5C 496.5,418.5 500.5,418.5 504.5,418.5C 510.842,418.334 517.175,418.5 523.5,419C 525.478,421.497 525.978,424.331 525,427.5C 524.25,428.126 523.416,428.626 522.5,429C 516.509,429.499 510.509,429.666 504.5,429.5C 500.5,429.5 496.5,429.5 492.5,429.5C 482.833,429.5 473.167,429.5 463.5,429.5C 445.167,429.5 426.833,429.5 408.5,429.5C 404.167,429.5 399.833,429.5 395.5,429.5C 381.833,429.5 368.167,429.5 354.5,429.5C 349.833,429.5 345.167,429.5 340.5,429.5C 322.167,429.5 303.833,429.5 285.5,429.5C 280.833,429.5 276.167,429.5 271.5,429.5C 266.833,429.5 262.167,429.5 257.5,429.5C 252.833,429.5 248.167,429.5 243.5,429.5C 229.833,429.5 216.167,429.5 202.5,429.5C 193.5,429.5 184.5,429.5 175.5,429.5C 160.165,429.222 144.832,428.889 129.5,428.5C 124.489,428.666 119.489,428.499 114.5,428C 111.803,424.729 112.136,421.729 115.5,419C 121.825,418.5 128.158,418.334 134.5,418.5C 138.5,418.5 142.5,418.5 146.5,418.5C 156.167,418.5 165.833,418.5 175.5,418.5C 193.833,418.5 212.167,418.5 230.5,418.5C 234.833,418.5 239.167,418.5 243.5,418.5C 248.167,418.5 252.833,418.5 257.5,418.5C 271.167,418.5 284.833,418.5 298.5,418.5C 308.167,418.5 317.833,418.5 327.5,418.5C 331.833,418.5 336.167,418.5 340.5,418.5C 345.167,418.5 349.833,418.5 354.5,418.5C 359.167,418.5 363.833,418.5 368.5,418.5C 372.833,418.5 377.167,418.5 381.5,418.5C 386.167,418.5 390.833,418.5 395.5,418.5C 399.833,418.5 404.167,418.5 408.5,418.5C 413.595,418.779 418.595,418.445 423.5,417.5C 428.044,417.34 432.378,417.34 436.5,417.5 Z"/></g>
<g><path style="opacity:1" fill="#fefdfd" d="M 129.5,428.5 C 144.832,428.889 160.165,429.222 175.5,429.5C 174.521,441.753 174.187,454.087 174.5,466.5C 178.846,466.666 183.179,466.499 187.5,466C 188,465.5 188.5,465 189,464.5C 189.499,460.848 189.665,457.182 189.5,453.5C 198.167,453.5 206.833,453.5 215.5,453.5C 215.334,457.514 215.501,461.514 216,465.5C 220.667,466.833 225.333,466.833 230,465.5C 230.499,461.179 230.666,456.846 230.5,452.5C 225.833,452.5 221.167,452.5 216.5,452.5C 216.5,448.167 216.5,443.833 216.5,439.5C 225.5,439.5 234.5,439.5 243.5,439.5C 243.5,448.5 243.5,457.5 243.5,466.5C 252.833,466.5 262.167,466.5 271.5,466.5C 271.5,461.833 271.5,457.167 271.5,452.5C 267.167,452.5 262.833,452.5 258.5,452.5C 258.5,448.167 258.5,443.833 258.5,439.5C 262.833,439.5 267.167,439.5 271.5,439.5C 271.5,436.167 271.5,432.833 271.5,429.5C 276.167,429.5 280.833,429.5 285.5,429.5C 284.183,437 284.183,444.5 285.5,452C 298.773,453.425 312.106,453.925 325.5,453.5C 325.5,457.5 325.5,461.5 325.5,465.5C 311.753,464.862 298.253,465.529 285,467.5C 284.333,485.167 284.333,502.833 285,520.5C 289.401,521.467 293.901,521.8 298.5,521.5C 298.5,525.833 298.5,530.167 298.5,534.5C 293.901,534.2 289.401,534.533 285,535.5C 284.5,549.163 284.333,562.829 284.5,576.5C 303.167,576.5 321.833,576.5 340.5,576.5C 340.5,572.167 340.5,567.833 340.5,563.5C 344.833,563.5 349.167,563.5 353.5,563.5C 353.203,567.767 353.536,571.934 354.5,576C 363.167,576.667 371.833,576.667 380.5,576C 381.467,571.599 381.8,567.099 381.5,562.5C 377.167,562.5 372.833,562.5 368.5,562.5C 368.5,558.167 368.5,553.833 368.5,549.5C 381.837,549.667 395.171,549.5 408.5,549C 409.485,539.917 409.818,530.751 409.5,521.5C 413.833,521.5 418.167,521.5 422.5,521.5C 422.5,516.833 422.5,512.167 422.5,507.5C 418.167,507.5 413.833,507.5 409.5,507.5C 409.5,498.5 409.5,489.5 409.5,480.5C 413.833,480.5 418.167,480.5 422.5,480.5C 422.5,471.167 422.5,461.833 422.5,452.5C 418.167,452.5 413.833,452.5 409.5,452.5C 409.5,448.167 409.5,443.833 409.5,439.5C 427.5,439.5 445.5,439.5 463.5,439.5C 463.5,436.167 463.5,432.833 463.5,429.5C 473.167,429.5 482.833,429.5 492.5,429.5C 491.504,498.429 491.17,567.429 491.5,636.5C 470.164,636.333 448.831,636.5 427.5,637C 422.316,641.625 422.316,646.292 427.5,651C 448.831,651.5 470.164,651.667 491.5,651.5C 491.938,675.205 491.438,698.872 490,722.5C 484.949,736.552 475.449,746.385 461.5,752C 366.833,752.667 272.167,752.667 177.5,752C 168.413,748.552 160.913,743.052 155,735.5C 152.196,731.557 150.196,727.223 149,722.5C 147.562,698.872 147.062,675.205 147.5,651.5C 168.836,651.667 190.169,651.5 211.5,651C 216.313,646.959 216.646,642.625 212.5,638C 210.833,637.667 209.167,637.333 207.5,637C 187.503,636.5 167.503,636.333 147.5,636.5C 147.667,567.833 147.5,499.166 147,430.5C 143.27,429.54 139.437,429.207 135.5,429.5C 133.265,429.795 131.265,429.461 129.5,428.5 Z"/></g>
<g><path style="opacity:0.987" fill="#0b0b0b" d="M 135.5,429.5 C 139.437,429.207 143.27,429.54 147,430.5C 147.5,499.166 147.667,567.833 147.5,636.5C 167.503,636.333 187.503,636.5 207.5,637C 209.167,637.333 210.833,637.667 212.5,638C 216.646,642.625 216.313,646.959 211.5,651C 190.169,651.5 168.836,651.667 147.5,651.5C 147.062,675.205 147.562,698.872 149,722.5C 150.196,727.223 152.196,731.557 155,735.5C 160.913,743.052 168.413,748.552 177.5,752C 272.167,752.667 366.833,752.667 461.5,752C 475.449,746.385 484.949,736.552 490,722.5C 491.438,698.872 491.938,675.205 491.5,651.5C 470.164,651.667 448.831,651.5 427.5,651C 422.316,646.292 422.316,641.625 427.5,637C 448.831,636.5 470.164,636.333 491.5,636.5C 491.17,567.429 491.504,498.429 492.5,429.5C 496.5,429.5 500.5,429.5 504.5,429.5C 504.333,492.501 504.5,555.501 505,618.5C 505.17,624.528 505.67,630.528 506.5,636.5C 514.317,635.173 519.484,630.84 522,623.5C 523.198,595.851 523.865,568.184 524,540.5C 531.98,533.144 537.314,534.811 540,545.5C 540.843,571.851 540.51,598.185 539,624.5C 534.287,641.88 522.954,651.213 505,652.5C 504.667,674.167 504.333,695.833 504,717.5C 499.944,742.89 485.444,758.723 460.5,765C 369.856,766.646 279.19,766.98 188.5,766C 162.025,764.175 144.525,750.675 136,725.5C 134.738,701.198 134.071,676.865 134,652.5C 114.826,650.661 103.16,640.327 99,621.5C 98.3333,594.833 98.3333,568.167 99,541.5C 101.26,538.626 104.093,536.626 107.5,535.5C 109.801,535.984 111.801,536.984 113.5,538.5C 114.127,550.296 114.793,561.962 115.5,573.5C 115.782,591.171 116.282,608.838 117,626.5C 121.028,632.264 126.528,635.597 133.5,636.5C 134.17,567.432 134.837,498.432 135.5,429.5 Z"/></g>
<g><path style="opacity:1" fill="#090909" d="M 285.5,429.5 C 303.833,429.5 322.167,429.5 340.5,429.5C 340.5,432.5 340.5,435.5 340.5,438.5C 344.833,438.5 349.167,438.5 353.5,438.5C 353.264,435.391 353.597,432.391 354.5,429.5C 368.167,429.5 381.833,429.5 395.5,429.5C 395.5,432.5 395.5,435.5 395.5,438.5C 399.833,438.5 404.167,438.5 408.5,438.5C 408.5,435.5 408.5,432.5 408.5,429.5C 426.833,429.5 445.167,429.5 463.5,429.5C 463.5,432.833 463.5,436.167 463.5,439.5C 445.5,439.5 427.5,439.5 409.5,439.5C 409.5,443.833 409.5,448.167 409.5,452.5C 413.833,452.5 418.167,452.5 422.5,452.5C 422.5,461.833 422.5,471.167 422.5,480.5C 418.167,480.5 413.833,480.5 409.5,480.5C 409.5,489.5 409.5,498.5 409.5,507.5C 413.833,507.5 418.167,507.5 422.5,507.5C 422.5,512.167 422.5,516.833 422.5,521.5C 418.167,521.5 413.833,521.5 409.5,521.5C 409.818,530.751 409.485,539.917 408.5,549C 395.171,549.5 381.837,549.667 368.5,549.5C 368.5,553.833 368.5,558.167 368.5,562.5C 372.833,562.5 377.167,562.5 381.5,562.5C 381.8,567.099 381.467,571.599 380.5,576C 371.833,576.667 363.167,576.667 354.5,576C 353.536,571.934 353.203,567.767 353.5,563.5C 349.167,563.5 344.833,563.5 340.5,563.5C 340.5,567.833 340.5,572.167 340.5,576.5C 321.833,576.5 303.167,576.5 284.5,576.5C 284.333,562.829 284.5,549.163 285,535.5C 289.401,534.533 293.901,534.2 298.5,534.5C 298.5,530.167 298.5,525.833 298.5,521.5C 293.901,521.8 289.401,521.467 285,520.5C 284.333,502.833 284.333,485.167 285,467.5C 298.253,465.529 311.753,464.862 325.5,465.5C 325.5,461.5 325.5,457.5 325.5,453.5C 312.106,453.925 298.773,453.425 285.5,452C 284.183,444.5 284.183,437 285.5,429.5 Z"/></g>
<g><path style="opacity:1" fill="#080808" d="M 175.5,429.5 C 184.5,429.5 193.5,429.5 202.5,429.5C 202.5,432.5 202.5,435.5 202.5,438.5C 207.167,438.5 211.833,438.5 216.5,438.5C 216.5,435.833 216.5,433.167 216.5,430.5C 225.5,430.5 234.5,430.5 243.5,430.5C 243.5,433.167 243.5,435.833 243.5,438.5C 248.167,438.5 252.833,438.5 257.5,438.5C 257.5,435.5 257.5,432.5 257.5,429.5C 262.167,429.5 266.833,429.5 271.5,429.5C 271.5,432.833 271.5,436.167 271.5,439.5C 267.167,439.5 262.833,439.5 258.5,439.5C 258.5,443.833 258.5,448.167 258.5,452.5C 262.833,452.5 267.167,452.5 271.5,452.5C 271.5,457.167 271.5,461.833 271.5,466.5C 262.167,466.5 252.833,466.5 243.5,466.5C 243.5,457.5 243.5,448.5 243.5,439.5C 234.5,439.5 225.5,439.5 216.5,439.5C 216.5,443.833 216.5,448.167 216.5,452.5C 221.167,452.5 225.833,452.5 230.5,452.5C 230.666,456.846 230.499,461.179 230,465.5C 225.333,466.833 220.667,466.833 216,465.5C 215.501,461.514 215.334,457.514 215.5,453.5C 206.833,453.5 198.167,453.5 189.5,453.5C 189.665,457.182 189.499,460.848 189,464.5C 188.5,465 188,465.5 187.5,466C 183.179,466.499 178.846,466.666 174.5,466.5C 174.187,454.087 174.521,441.753 175.5,429.5 Z"/></g>
<g><path style="opacity:1" fill="#f6f6f6" d="M 243.5,429.5 C 248.167,429.5 252.833,429.5 257.5,429.5C 257.5,432.5 257.5,435.5 257.5,438.5C 252.833,438.5 248.167,438.5 243.5,438.5C 243.5,435.833 243.5,433.167 243.5,430.5C 243.5,430.167 243.5,429.833 243.5,429.5 Z"/></g>
<g><path style="opacity:1" fill="#e4e4e4" d="M 202.5,429.5 C 216.167,429.5 229.833,429.5 243.5,429.5C 243.5,429.833 243.5,430.167 243.5,430.5C 234.5,430.5 225.5,430.5 216.5,430.5C 216.5,433.167 216.5,435.833 216.5,438.5C 211.833,438.5 207.167,438.5 202.5,438.5C 202.5,435.5 202.5,432.5 202.5,429.5 Z"/></g>
<g><path style="opacity:1" fill="#fdf9f9" d="M 340.5,429.5 C 345.167,429.5 349.833,429.5 354.5,429.5C 353.597,432.391 353.264,435.391 353.5,438.5C 349.167,438.5 344.833,438.5 340.5,438.5C 340.5,435.5 340.5,432.5 340.5,429.5 Z"/></g>
<g><path style="opacity:1" fill="#fefafa" d="M 395.5,429.5 C 399.833,429.5 404.167,429.5 408.5,429.5C 408.5,432.5 408.5,435.5 408.5,438.5C 404.167,438.5 399.833,438.5 395.5,438.5C 395.5,435.5 395.5,432.5 395.5,429.5 Z"/></g>
<g><path style="opacity:1" fill="#fefefe" d="M 368.5,439.5 C 372.437,439.207 376.27,439.54 380,440.5C 380.499,444.486 380.666,448.486 380.5,452.5C 376.5,452.5 372.5,452.5 368.5,452.5C 368.5,448.167 368.5,443.833 368.5,439.5 Z"/></g>
<g><path style="opacity:1" fill="#070707" d="M 436.5,572.5 C 436.5,564.833 436.5,557.167 436.5,549.5C 433.5,549.5 430.5,549.5 427.5,549.5C 425.833,549.5 424.167,549.5 422.5,549.5C 422.5,544.833 422.5,540.167 422.5,535.5C 427.167,535.5 431.833,535.5 436.5,535.5C 436.5,507.833 436.5,480.167 436.5,452.5C 441.167,452.5 445.833,452.5 450.5,452.5C 450.334,457.179 450.501,461.845 451,466.5C 455.453,465.324 459.953,465.324 464.5,466.5C 464.5,484.833 464.5,503.167 464.5,521.5C 459.833,521.5 455.167,521.5 450.5,521.5C 450.5,525.833 450.5,530.167 450.5,534.5C 454.833,534.5 459.167,534.5 463.5,534.5C 463.5,539.5 463.5,544.5 463.5,549.5C 459.167,549.5 454.833,549.5 450.5,549.5C 450.5,553.833 450.5,558.167 450.5,562.5C 455.167,562.5 459.833,562.5 464.5,562.5C 464.5,567.167 464.5,571.833 464.5,576.5C 455.167,576.5 445.833,576.5 436.5,576.5C 436.5,575.167 436.5,573.833 436.5,572.5 Z"/></g>
<g><path style="opacity:1" fill="#fdfdfd" d="M 354.5,466.5 C 358.298,467.483 362.298,467.817 366.5,467.5C 366.232,469.099 366.566,470.432 367.5,471.5C 367.5,474.5 367.5,477.5 367.5,480.5C 376.5,480.5 385.5,480.5 394.5,480.5C 394.5,484.833 394.5,489.167 394.5,493.5C 385.5,493.5 376.5,493.5 367.5,493.5C 367.5,496.5 367.5,499.5 367.5,502.5C 366.51,508.31 366.177,514.31 366.5,520.5C 364.833,520.5 363.167,520.5 361.5,520.5C 358.635,520.055 356.135,520.722 354,522.5C 353.5,531.16 353.334,539.827 353.5,548.5C 349.167,548.5 344.833,548.5 340.5,548.5C 340.5,539.5 340.5,530.5 340.5,521.5C 344.846,521.666 349.179,521.499 353.5,521C 354.467,516.599 354.8,512.099 354.5,507.5C 349.5,507.5 344.5,507.5 339.5,507.5C 339.5,509.833 339.5,512.167 339.5,514.5C 338.539,516.265 338.205,518.265 338.5,520.5C 336.5,520.5 334.5,520.5 332.5,520.5C 329.453,519.855 327.287,520.855 326,523.5C 325.5,531.827 325.334,540.16 325.5,548.5C 322.833,548.5 320.167,548.5 317.5,548.5C 316.432,547.566 315.099,547.232 313.5,547.5C 313.823,540.978 313.49,534.645 312.5,528.5C 312.666,521.825 312.5,515.158 312,508.5C 307.934,507.536 303.767,507.203 299.5,507.5C 299.5,498.5 299.5,489.5 299.5,480.5C 308.5,480.5 317.5,480.5 326.5,480.5C 326.5,475.833 326.5,471.167 326.5,466.5C 330.846,466.666 335.179,466.499 339.5,466C 340.464,461.934 340.797,457.767 340.5,453.5C 344.833,453.5 349.167,453.5 353.5,453.5C 353.182,458.032 353.515,462.366 354.5,466.5 Z"/></g>
<g><path style="opacity:1" fill="#fafafa" d="M 395.5,452.5 C 399.833,452.5 404.167,452.5 408.5,452.5C 408.5,461.5 408.5,470.5 408.5,479.5C 404.167,479.5 399.833,479.5 395.5,479.5C 395.5,470.5 395.5,461.5 395.5,452.5 Z"/></g>
<g><path style="opacity:1" fill="#838383" d="M 354.5,466.5 C 358.833,466.5 363.167,466.5 367.5,466.5C 367.5,468.167 367.5,469.833 367.5,471.5C 366.566,470.432 366.232,469.099 366.5,467.5C 362.298,467.817 358.298,467.483 354.5,466.5 Z"/></g>
<g><path style="opacity:1" fill="#070707" d="M 175.5,479.5 C 207.5,479.5 239.5,479.5 271.5,479.5C 271.5,511.833 271.5,544.167 271.5,576.5C 239.26,576.829 207.093,576.496 175,575.5C 174.175,543.428 174.341,511.428 175.5,479.5 Z"/></g>
<g><path style="opacity:1" fill="#101010" d="M 340.5,479.5 C 344.833,479.5 349.167,479.5 353.5,479.5C 353.5,484.167 353.5,488.833 353.5,493.5C 348.833,493.5 344.167,493.5 339.5,493.5C 339.226,488.737 339.559,484.07 340.5,479.5 Z"/></g>
<g><path style="opacity:1" fill="#fdfdfd" d="M 187.5,492.5 C 211.167,492.5 234.833,492.5 258.5,492.5C 258.5,516.5 258.5,540.5 258.5,564.5C 234.833,564.5 211.167,564.5 187.5,564.5C 187.5,540.5 187.5,516.5 187.5,492.5 Z"/></g>
<g><path style="opacity:1" fill="#040504" d="M 312.5,493.5 C 317.167,493.5 321.833,493.5 326.5,493.5C 326.5,498.167 326.5,502.833 326.5,507.5C 321.833,507.5 317.167,507.5 312.5,507.5C 312.5,502.833 312.5,498.167 312.5,493.5 Z"/></g>
<g><path style="opacity:1" fill="#050505" d="M 202.5,506.5 C 216.5,506.5 230.5,506.5 244.5,506.5C 244.5,520.833 244.5,535.167 244.5,549.5C 230.167,549.5 215.833,549.5 201.5,549.5C 201.184,535.088 201.518,520.755 202.5,506.5 Z"/></g>
<g><path style="opacity:1" fill="#ececec" d="M 396.5,507.5 C 400.5,507.5 404.5,507.5 408.5,507.5C 408.5,512.167 408.5,516.833 408.5,521.5C 404.167,521.5 399.833,521.5 395.5,521.5C 395.226,516.737 395.559,512.07 396.5,507.5 Z"/></g>
<g><path style="opacity:1" fill="#959595" d="M 367.5,502.5 C 367.5,508.833 367.5,515.167 367.5,521.5C 365.265,521.795 363.265,521.461 361.5,520.5C 363.167,520.5 364.833,520.5 366.5,520.5C 366.177,514.31 366.51,508.31 367.5,502.5 Z"/></g>
<g><path style="opacity:1" fill="#6f6f6f" d="M 339.5,514.5 C 339.5,516.833 339.5,519.167 339.5,521.5C 336.941,521.802 334.607,521.468 332.5,520.5C 334.5,520.5 336.5,520.5 338.5,520.5C 338.205,518.265 338.539,516.265 339.5,514.5 Z"/></g>
<g><path style="opacity:1" fill="#fafafa" d="M 368.5,521.5 C 372.182,521.335 375.848,521.501 379.5,522C 380.954,526.009 381.621,530.175 381.5,534.5C 377.167,534.5 372.833,534.5 368.5,534.5C 368.5,530.167 368.5,525.833 368.5,521.5 Z"/></g>
<g><path style="opacity:1" fill="#fefefe" d="M 436.5,535.5 C 440.833,535.5 445.167,535.5 449.5,535.5C 449.5,539.833 449.5,544.167 449.5,548.5C 445.167,548.5 440.833,548.5 436.5,548.5C 436.5,544.167 436.5,539.833 436.5,535.5 Z"/></g>
<g><path style="opacity:1" fill="#868686" d="M 312.5,528.5 C 313.49,534.645 313.823,540.978 313.5,547.5C 315.099,547.232 316.432,547.566 317.5,548.5C 315.833,548.5 314.167,548.5 312.5,548.5C 312.5,541.833 312.5,535.167 312.5,528.5 Z"/></g>
<g><path style="opacity:1" fill="#fefffe" d="M 299.5,549.5 C 303.833,549.5 308.167,549.5 312.5,549.5C 312.5,553.833 312.5,558.167 312.5,562.5C 308.167,562.5 303.833,562.5 299.5,562.5C 299.5,558.167 299.5,553.833 299.5,549.5 Z"/></g>
<g><path style="opacity:1" fill="#999999" d="M 427.5,549.5 C 430.5,549.5 433.5,549.5 436.5,549.5C 436.5,557.167 436.5,564.833 436.5,572.5C 435.508,565.352 435.175,558.019 435.5,550.5C 432.615,550.806 429.948,550.473 427.5,549.5 Z"/></g>
<g><path style="opacity:0.514" fill="#444444" d="M 113.5,538.5 C 114.117,538.611 114.617,538.944 115,539.5C 115.5,550.828 115.667,562.162 115.5,573.5C 114.793,561.962 114.127,550.296 113.5,538.5 Z"/></g>
<g><path style="opacity:1" fill="#101010" d="M 256.5,733.5 C 299.835,733.333 343.168,733.5 386.5,734C 388.952,734.29 391.285,734.956 393.5,736C 394.991,738.022 394.658,739.688 392.5,741C 390.5,741.333 388.5,741.667 386.5,742C 342.167,742.667 297.833,742.667 253.5,742C 250.833,741.667 248.167,741.333 245.5,741C 244.065,738.733 244.398,736.733 246.5,735C 250.025,734.821 253.359,734.321 256.5,733.5 Z"/></g>
</svg>
